<svg width="173" height="178" viewBox="0 0 173 178" fill="none" xmlns="http://www.w3.org/2000/svg">
<path d="M12.24 145.32H16.512L28.224 177H23.832L21.096 169.368H7.65598L4.87198 177H0.47998L12.24 145.32ZM8.97598 165.672H19.8L14.424 150.36H14.352L8.97598 165.672Z" fill="black"/>
<path d="M28.1614 157.296H32.6494L39.0814 173.136L45.5134 157.296H49.9774L41.5534 177H36.6334L28.1614 157.296Z" fill="black"/>
<path d="M63.015 177.576C60.983 177.576 59.175 177.12 57.591 176.208C56.023 175.296 54.791 174.064 53.895 172.512C52.999 170.944 52.551 169.176 52.551 167.208C52.551 165.24 52.999 163.464 53.895 161.88C54.791 160.296 56.023 159.04 57.591 158.112C59.175 157.184 60.983 156.72 63.015 156.72C65.031 156.72 66.815 157.184 68.367 158.112C69.935 159.04 71.159 160.296 72.039 161.88C72.919 163.464 73.359 165.24 73.359 167.208C73.359 169.176 72.919 170.944 72.039 172.512C71.159 174.064 69.935 175.296 68.367 176.208C66.815 177.12 65.031 177.576 63.015 177.576ZM63.015 174C64.295 174 65.407 173.704 66.351 173.112C67.311 172.52 68.055 171.712 68.583 170.688C69.111 169.648 69.375 168.48 69.375 167.184C69.375 165.888 69.111 164.72 68.583 163.68C68.055 162.64 67.311 161.816 66.351 161.208C65.407 160.6 64.295 160.296 63.015 160.296C61.719 160.296 60.591 160.6 59.631 161.208C58.671 161.816 57.919 162.64 57.375 163.68C56.847 164.72 56.583 165.888 56.583 167.184C56.583 168.48 56.847 169.648 57.375 170.688C57.919 171.712 58.671 172.52 59.631 173.112C60.591 173.704 61.719 174 63.015 174Z" fill="black"/>
<path d="M93.4927 173.52C95.4607 173.52 97.1647 173.248 98.6047 172.704C100.061 172.16 101.093 171.632 101.701 171.12L103.501 174.648C102.781 175.288 101.525 175.936 99.7327 176.592C97.9567 177.248 95.8207 177.576 93.3247 177.576C90.9887 177.576 88.8207 177.16 86.8207 176.328C84.8207 175.496 83.0687 174.336 81.5647 172.848C80.0767 171.36 78.9087 169.624 78.0607 167.64C77.2287 165.656 76.8127 163.512 76.8127 161.208C76.8127 158.904 77.2287 156.752 78.0607 154.752C78.8927 152.752 80.0527 151.008 81.5407 149.52C83.0447 148.016 84.7967 146.848 86.7967 146.016C88.8127 145.168 90.9887 144.744 93.3247 144.744C95.8207 144.744 97.9567 145.072 99.7327 145.728C101.525 146.384 102.781 147.032 103.501 147.672L101.701 151.2C101.093 150.672 100.061 150.144 98.6047 149.616C97.1647 149.072 95.4607 148.8 93.4927 148.8C91.7007 148.8 90.0607 149.104 88.5727 149.712C87.0847 150.32 85.7887 151.184 84.6847 152.304C83.5967 153.408 82.7487 154.712 82.1407 156.216C81.5487 157.72 81.2527 159.36 81.2527 161.136C81.2527 162.928 81.5487 164.584 82.1407 166.104C82.7487 167.608 83.5967 168.92 84.6847 170.04C85.7887 171.144 87.0847 172 88.5727 172.608C90.0607 173.216 91.7007 173.52 93.4927 173.52Z" fill="black"/>
<path d="M124.157 177V173.16C124.029 173.56 123.653 174.112 123.029 174.816C122.421 175.52 121.581 176.16 120.509 176.736C119.453 177.296 118.205 177.576 116.765 177.576C114.941 177.576 113.285 177.144 111.797 176.28C110.325 175.416 109.149 174.208 108.269 172.656C107.405 171.088 106.973 169.256 106.973 167.16C106.973 165.064 107.405 163.24 108.269 161.688C109.149 160.12 110.325 158.904 111.797 158.04C113.285 157.16 114.941 156.72 116.765 156.72C118.189 156.72 119.421 156.976 120.461 157.488C121.517 158 122.357 158.592 122.981 159.264C123.621 159.936 123.997 160.512 124.109 160.992V157.296H128.237V177H124.157ZM111.101 167.16C111.101 168.584 111.413 169.816 112.037 170.856C112.661 171.896 113.469 172.704 114.461 173.28C115.469 173.84 116.541 174.12 117.677 174.12C118.893 174.12 119.981 173.832 120.941 173.256C121.901 172.68 122.661 171.872 123.221 170.832C123.781 169.776 124.061 168.552 124.061 167.16C124.061 165.768 123.781 164.552 123.221 163.512C122.661 162.456 121.901 161.64 120.941 161.064C119.981 160.472 118.893 160.176 117.677 160.176C116.541 160.176 115.469 160.464 114.461 161.04C113.469 161.616 112.661 162.424 112.037 163.464C111.413 164.504 111.101 165.736 111.101 167.16Z" fill="black"/>
<path d="M137.921 177H133.769V157.296H137.921V160.704H137.801C137.881 160.288 138.177 159.768 138.689 159.144C139.201 158.52 139.905 157.96 140.801 157.464C141.697 156.968 142.769 156.72 144.017 156.72C144.929 156.72 145.729 156.848 146.417 157.104C147.121 157.344 147.617 157.584 147.905 157.824L146.201 161.28C145.977 161.056 145.585 160.832 145.025 160.608C144.465 160.368 143.769 160.248 142.937 160.248C141.881 160.248 140.977 160.576 140.225 161.232C139.473 161.888 138.897 162.68 138.497 163.608C138.113 164.52 137.921 165.368 137.921 166.152V177Z" fill="black"/>
<path d="M158.864 177.576C157.056 177.576 155.432 177.144 153.992 176.28C152.568 175.416 151.44 174.208 150.608 172.656C149.792 171.088 149.384 169.256 149.384 167.16C149.384 165.064 149.792 163.24 150.608 161.688C151.44 160.12 152.568 158.904 153.992 158.04C155.432 157.16 157.056 156.72 158.864 156.72C160.32 156.72 161.6 156.976 162.704 157.488C163.808 157.984 164.688 158.568 165.344 159.24C166 159.912 166.376 160.496 166.472 160.992V143.976H170.672V177H166.544V173.16C166.368 173.704 165.928 174.32 165.224 175.008C164.536 175.696 163.648 176.296 162.56 176.808C161.472 177.32 160.24 177.576 158.864 177.576ZM159.824 174.12C161.04 174.12 162.152 173.832 163.16 173.256C164.168 172.68 164.968 171.872 165.56 170.832C166.168 169.776 166.472 168.552 166.472 167.16C166.472 165.768 166.168 164.552 165.56 163.512C164.968 162.456 164.168 161.64 163.16 161.064C162.152 160.472 161.04 160.176 159.824 160.176C158.704 160.176 157.664 160.464 156.704 161.04C155.744 161.616 154.968 162.424 154.376 163.464C153.8 164.504 153.512 165.736 153.512 167.16C153.512 168.584 153.8 169.816 154.376 170.856C154.968 171.896 155.744 172.704 156.704 173.28C157.664 173.84 158.704 174.12 159.824 174.12Z" fill="black"/>
<path fill-rule="evenodd" clip-rule="evenodd" d="M93.5138 65.9981C90.1024 57.9028 88.6625 48.791 88.6625 40.0062C88.6625 17.9114 70.751 0 48.6562 0C26.5614 0 8.64995 17.9114 8.64995 40.0062C8.64995 48.791 7.20998 57.9029 3.79862 65.9982C1.35228 71.8035 0 78.1829 0 84.8781C0 111.75 21.7841 133.534 48.6562 133.534C75.5284 133.534 97.3125 111.75 97.3125 84.8781C97.3125 78.1829 95.9602 71.8034 93.5138 65.9981Z" fill="#59AA45"/>
<path fill-rule="evenodd" clip-rule="evenodd" d="M169.201 65.9981C165.79 57.9028 164.35 48.791 164.35 40.0062C164.35 17.9114 146.439 0 124.344 0C102.249 0 84.3375 17.9114 84.3375 40.0062C84.3375 48.791 82.8975 57.9029 79.4861 65.9982C77.0398 71.8035 75.6875 78.1829 75.6875 84.8781C75.6875 111.75 97.4716 133.534 124.344 133.534C151.216 133.534 173 111.75 173 84.8781C173 78.1829 171.648 71.8034 169.201 65.9981Z" fill="#FFDA56"/>
<g style="mix-blend-mode:plus-darker">
<path fill-rule="evenodd" clip-rule="evenodd" d="M88.6625 40.0062C88.6625 48.7909 90.1024 57.9027 93.5138 65.998C95.9602 71.8034 97.3125 78.1828 97.3125 84.8781C97.3125 96.4653 93.2621 107.106 86.5 115.463C79.7379 107.106 75.6875 96.4653 75.6875 84.8781C75.6875 78.1829 77.0398 71.8035 79.4861 65.9982C82.8975 57.9028 84.3375 48.791 84.3375 40.0062C84.3375 35.4523 85.0984 31.076 86.5 26.9977C87.9016 31.076 88.6625 35.4523 88.6625 40.0062Z" fill="#FFE27D"/>
</g>
</svg>
